<svg width="138" height="24" viewBox="0 0 138 24" fill="none" xmlns="http://www.w3.org/2000/svg">
<path d="M17.632 17.368H6.112L3.68 23H0.32L10.464 0.216H13.248L23.424 23H20.064L17.632 17.368ZM16.512 14.744L11.872 3.896L7.232 14.744H16.512ZM31.5 23.224C28.684 23.224 26.4653 22.5413 24.844 21.176L25.804 18.84C27.4893 20.12 29.42 20.76 31.596 20.76C32.7053 20.76 33.548 20.5787 34.124 20.216C34.7 19.832 34.988 19.2987 34.988 18.616C34.988 18.04 34.7853 17.592 34.38 17.272C33.996 16.9307 33.3347 16.6427 32.396 16.408L29.708 15.768C28.3 15.4693 27.2227 14.9467 26.476 14.2C25.7507 13.432 25.388 12.4827 25.388 11.352C25.388 9.90133 25.964 8.728 27.116 7.832C28.2893 6.936 29.836 6.488 31.756 6.488C32.908 6.488 33.996 6.66933 35.02 7.032C36.0653 7.39467 36.9507 7.90667 37.676 8.568L36.684 10.84C35.1267 9.60267 33.484 8.984 31.756 8.984C30.7107 8.984 29.9 9.18667 29.324 9.592C28.748 9.976 28.46 10.52 28.46 11.224C28.46 11.7787 28.6413 12.2267 29.004 12.568C29.3667 12.9093 29.9427 13.176 30.732 13.368L33.484 14.04C35.02 14.3813 36.1507 14.9253 36.876 15.672C37.6227 16.3973 37.996 17.3467 37.996 18.52C37.996 19.9707 37.4093 21.1227 36.236 21.976C35.084 22.808 33.5053 23.224 31.5 23.224ZM45.8413 9.368V17.464C45.8413 18.5733 46.0759 19.3627 46.5453 19.832C47.0359 20.28 47.7079 20.504 48.5613 20.504C49.1159 20.504 49.6813 20.4187 50.2573 20.248V22.872C49.5533 23.1067 48.7533 23.224 47.8573 23.224C46.1933 23.224 44.9026 22.7547 43.9852 21.816C43.0679 20.8773 42.6093 19.512 42.6093 17.72V9.368H39.4733V6.872H42.6093V2.84L45.8413 1.72V6.872H50.2893V9.368H45.8413ZM61.3063 6.488C61.7969 6.488 62.3089 6.56267 62.8423 6.712L62.7783 9.656C62.2023 9.44267 61.5729 9.336 60.8903 9.336C59.4183 9.336 58.3089 9.784 57.5623 10.68C56.8369 11.5547 56.4743 12.664 56.4743 14.008V23H53.2743V11.416C53.2743 9.73067 53.1889 8.216 53.0182 6.872H56.0263L56.3143 9.784C56.7409 8.71733 57.4023 7.90667 58.2983 7.352C59.1943 6.776 60.1969 6.488 61.3063 6.488ZM79.745 6.872V23H76.545V20.248C76.0757 21.208 75.3717 21.944 74.433 22.456C73.5157 22.968 72.4383 23.224 71.201 23.224C69.7717 23.224 68.513 22.8827 67.425 22.2C66.3583 21.5173 65.5263 20.5573 64.929 19.32C64.3317 18.0613 64.033 16.6 64.033 14.936C64.033 13.272 64.3317 11.8 64.929 10.52C65.5477 9.24 66.401 8.248 67.489 7.544C68.577 6.84 69.8143 6.488 71.201 6.488C72.4383 6.488 73.5157 6.75467 74.433 7.288C75.3503 7.8 76.0543 8.536 76.545 9.496V6.872H79.745ZM71.969 20.664C73.4197 20.664 74.5397 20.1627 75.329 19.16C76.1397 18.136 76.545 16.7067 76.545 14.872C76.545 13.016 76.1397 11.5867 75.329 10.584C74.5397 9.58133 73.409 9.08 71.937 9.08C70.4863 9.08 69.345 9.60267 68.513 10.648C67.7023 11.672 67.297 13.1013 67.297 14.936C67.297 16.7493 67.7023 18.1573 68.513 19.16C69.345 20.1627 70.497 20.664 71.969 20.664ZM104.909 0.216L94.861 23H92.077L82.029 0.216H85.485L93.485 18.84L101.517 0.216H104.909ZM120.058 6.872V23H116.858V20.248C116.388 21.208 115.684 21.944 114.746 22.456C113.828 22.968 112.751 23.224 111.514 23.224C110.084 23.224 108.826 22.8827 107.738 22.2C106.671 21.5173 105.839 20.5573 105.242 19.32C104.644 18.0613 104.346 16.6 104.346 14.936C104.346 13.272 104.644 11.8 105.242 10.52C105.86 9.24 106.714 8.248 107.802 7.544C108.89 6.84 110.127 6.488 111.514 6.488C112.751 6.488 113.828 6.75467 114.746 7.288C115.663 7.8 116.367 8.536 116.858 9.496V6.872H120.058ZM112.282 20.664C113.732 20.664 114.852 20.1627 115.642 19.16C116.452 18.136 116.858 16.7067 116.858 14.872C116.858 13.016 116.452 11.5867 115.642 10.584C114.852 9.58133 113.722 9.08 112.25 9.08C110.799 9.08 109.658 9.60267 108.826 10.648C108.015 11.672 107.61 13.1013 107.61 14.936C107.61 16.7493 108.015 18.1573 108.826 19.16C109.658 20.1627 110.81 20.664 112.282 20.664ZM131.814 23.224C130.192 23.224 128.774 22.8827 127.558 22.2C126.363 21.5173 125.446 20.5573 124.806 19.32C124.166 18.0613 123.846 16.6 123.846 14.936C123.846 13.272 124.176 11.8 124.838 10.52C125.52 9.24 126.47 8.248 127.686 7.544C128.902 6.84 130.32 6.488 131.942 6.488C133.072 6.488 134.16 6.68 135.206 7.064C136.251 7.42667 137.094 7.928 137.734 8.568L136.742 10.904C135.227 9.70933 133.702 9.112 132.166 9.112C130.608 9.112 129.392 9.624 128.518 10.648C127.643 11.6507 127.206 13.0693 127.206 14.904C127.206 16.7387 127.643 18.1573 128.518 19.16C129.392 20.1413 130.608 20.632 132.166 20.632C133.744 20.632 135.27 20.0347 136.742 18.84L137.734 21.176C137.051 21.816 136.176 22.3173 135.11 22.68C134.064 23.0427 132.966 23.224 131.814 23.224Z" fill="#B9C0C1"/>
</svg>
