<svg width="35" height="14" viewBox="0 0 35 14" fill="none" xmlns="http://www.w3.org/2000/svg">
<path d="M6.256 13.24C5.424 13.24 4.67733 13.112 4.016 12.856C3.35467 12.6 2.79467 12.2267 2.336 11.736C1.87733 11.2347 1.52533 10.6267 1.28 9.912C1.03467 9.19733 0.912 8.376 0.912 7.448C0.912 6.52 1.05067 5.69867 1.328 4.984C1.616 4.26933 2.00533 3.66667 2.496 3.176C2.98667 2.67467 3.56267 2.296 4.224 2.04C4.88533 1.784 5.59467 1.656 6.352 1.656C6.81067 1.656 7.22667 1.69333 7.6 1.768C7.97333 1.832 8.29867 1.90667 8.576 1.992C8.85333 2.07733 9.08267 2.168 9.264 2.264C9.44533 2.36 9.57333 2.42933 9.648 2.472L9.056 4.12C8.8 3.96 8.432 3.81067 7.952 3.672C7.48267 3.52267 6.97067 3.448 6.416 3.448C5.936 3.448 5.488 3.53333 5.072 3.704C4.656 3.864 4.29333 4.10933 3.984 4.44C3.68533 4.77067 3.45067 5.18667 3.28 5.688C3.10933 6.18933 3.024 6.77067 3.024 7.432C3.024 8.01867 3.088 8.55733 3.216 9.048C3.35467 9.53867 3.56267 9.96533 3.84 10.328C4.11733 10.68 4.46933 10.9573 4.896 11.16C5.32267 11.352 5.83467 11.448 6.432 11.448C7.14667 11.448 7.728 11.3787 8.176 11.24C8.624 11.0907 8.97067 10.952 9.216 10.824L9.76 12.472C9.632 12.5573 9.456 12.6427 9.232 12.728C9.01867 12.8133 8.76267 12.8987 8.464 12.984C8.16533 13.0587 7.82933 13.1173 7.456 13.16C7.08267 13.2133 6.68267 13.24 6.256 13.24ZM11.4351 13V0.903999L13.3711 0.584V4.728C13.5845 4.65333 13.8298 4.58933 14.1071 4.536C14.3951 4.48267 14.6778 4.456 14.9551 4.456C15.6271 4.456 16.1818 4.552 16.6191 4.744C17.0671 4.92533 17.4245 5.18667 17.6911 5.528C17.9578 5.85867 18.1445 6.25867 18.2511 6.728C18.3685 7.19733 18.4271 7.72 18.4271 8.296V13H16.4911V8.6C16.4911 8.152 16.4591 7.77333 16.3951 7.464C16.3418 7.144 16.2458 6.888 16.1071 6.696C15.9791 6.49333 15.8031 6.34933 15.5791 6.264C15.3551 6.168 15.0778 6.12 14.7471 6.12C14.4911 6.12 14.2298 6.14667 13.9631 6.2C13.6965 6.25333 13.4991 6.30133 13.3711 6.344V13H11.4351ZM23.6916 11.64C24.289 11.64 24.7423 11.608 25.0516 11.544V9.4C24.945 9.368 24.7903 9.336 24.5876 9.304C24.385 9.272 24.161 9.256 23.9156 9.256C23.7023 9.256 23.4836 9.272 23.2596 9.304C23.0463 9.336 22.849 9.39467 22.6676 9.48C22.497 9.56533 22.3583 9.688 22.2516 9.848C22.145 9.99733 22.0916 10.1893 22.0916 10.424C22.0916 10.8827 22.2356 11.2027 22.5236 11.384C22.8116 11.5547 23.201 11.64 23.6916 11.64ZM23.5316 4.424C24.1716 4.424 24.7103 4.504 25.1476 4.664C25.585 4.824 25.9316 5.048 26.1876 5.336C26.4543 5.624 26.641 5.976 26.7476 6.392C26.865 6.79733 26.9236 7.24533 26.9236 7.736V12.808C26.625 12.872 26.1716 12.9467 25.5636 13.032C24.9663 13.128 24.289 13.176 23.5316 13.176C23.0303 13.176 22.5716 13.128 22.1556 13.032C21.7396 12.936 21.3823 12.7813 21.0836 12.568C20.7956 12.3547 20.5663 12.0773 20.3956 11.736C20.2356 11.3947 20.1556 10.9733 20.1556 10.472C20.1556 9.992 20.2463 9.58667 20.4276 9.256C20.6196 8.92533 20.8756 8.65867 21.1956 8.456C21.5156 8.24267 21.8836 8.09333 22.2996 8.008C22.7263 7.912 23.169 7.864 23.6276 7.864C23.841 7.864 24.065 7.88 24.2996 7.912C24.5343 7.93333 24.785 7.976 25.0516 8.04V7.72C25.0516 7.496 25.025 7.28267 24.9716 7.08C24.9183 6.87733 24.8223 6.70133 24.6836 6.552C24.5556 6.392 24.3796 6.26933 24.1556 6.184C23.9423 6.09867 23.6703 6.056 23.3396 6.056C22.8916 6.056 22.481 6.088 22.1076 6.152C21.7343 6.216 21.4303 6.29067 21.1956 6.376L20.9556 4.808C21.201 4.72267 21.5583 4.63733 22.0276 4.552C22.497 4.46667 22.9983 4.424 23.5316 4.424ZM29.1985 2.424L31.1345 2.104V4.632H34.1105V6.248H31.1345V9.656C31.1345 10.328 31.2412 10.808 31.4545 11.096C31.6678 11.384 32.0305 11.528 32.5425 11.528C32.8945 11.528 33.2038 11.4907 33.4705 11.416C33.7478 11.3413 33.9665 11.272 34.1265 11.208L34.4465 12.744C34.2225 12.84 33.9292 12.936 33.5665 13.032C33.2038 13.1387 32.7772 13.192 32.2865 13.192C31.6892 13.192 31.1878 13.112 30.7825 12.952C30.3878 12.792 30.0732 12.5627 29.8385 12.264C29.6038 11.9547 29.4385 11.5867 29.3425 11.16C29.2465 10.7227 29.1985 10.2267 29.1985 9.672V2.424Z" fill="#001F29"/>
</svg>
