<svg width="40" height="40" viewBox="0 0 40 40" fill="none" xmlns="http://www.w3.org/2000/svg">
<rect width="40" height="40" rx="10" fill="#FFE1D8"/>
<path d="M26.4167 28.1667H13.5833C12.5708 28.1667 11.75 27.3459 11.75 26.3333V13.5C11.75 12.4875 12.5708 11.6667 13.5833 11.6667H15.4167V9.83334H17.25V11.6667H22.75V9.83334H24.5833V11.6667H26.4167C27.4292 11.6667 28.25 12.4875 28.25 13.5V26.3333C28.25 27.3459 27.4292 28.1667 26.4167 28.1667ZM13.5833 17.1667V26.3333H26.4167V17.1667H13.5833ZM13.5833 13.5V15.3333H26.4167V13.5H13.5833ZM19.0833 24.8795L15.6853 21.4814L16.9814 20.1853L19.0833 22.2872L23.0186 18.3519L24.3147 19.6481L19.0833 24.8786V24.8795Z" fill="#F75532"/>
</svg>
