<svg width="214" height="25" viewBox="0 0 214 25" fill="none" xmlns="http://www.w3.org/2000/svg">
<path d="M19.984 1.216V24H16.688V13.792H3.92V24H0.656V1.216H3.92V11.072H16.688V1.216H19.984ZM38.753 16H27.233C27.3397 19.776 29.057 21.664 32.385 21.664C34.241 21.664 35.937 21.056 37.473 19.84L38.465 22.144C37.7397 22.784 36.8117 23.296 35.681 23.68C34.5717 24.0427 33.4517 24.224 32.321 24.224C29.7397 24.224 27.713 23.488 26.241 22.016C24.769 20.5227 24.033 18.4853 24.033 15.904C24.033 14.2613 24.353 12.8 24.993 11.52C25.6543 10.24 26.5717 9.248 27.745 8.544C28.9183 7.84 30.2517 7.488 31.745 7.488C33.921 7.488 35.6277 8.192 36.865 9.6C38.1237 11.008 38.753 12.96 38.753 15.456V16ZM31.809 9.888C30.593 9.888 29.601 10.2507 28.833 10.976C28.065 11.7013 27.5743 12.736 27.361 14.08H35.905C35.777 12.7147 35.361 11.68 34.657 10.976C33.953 10.2507 33.0037 9.888 31.809 9.888ZM57.2138 7.872V24H54.0138V21.248C53.5444 22.208 52.8404 22.944 51.9018 23.456C50.9844 23.968 49.9071 24.224 48.6698 24.224C47.2404 24.224 45.9818 23.8827 44.8938 23.2C43.8271 22.5173 42.9951 21.5573 42.3978 20.32C41.8004 19.0613 41.5018 17.6 41.5018 15.936C41.5018 14.272 41.8004 12.8 42.3978 11.52C43.0164 10.24 43.8698 9.248 44.9578 8.544C46.0458 7.84 47.2831 7.488 48.6698 7.488C49.9071 7.488 50.9844 7.75467 51.9018 8.288C52.8191 8.8 53.5231 9.536 54.0138 10.496V7.872H57.2138ZM49.4378 21.664C50.8884 21.664 52.0084 21.1627 52.7978 20.16C53.6084 19.136 54.0138 17.7067 54.0138 15.872C54.0138 14.016 53.6084 12.5867 52.7978 11.584C52.0084 10.5813 50.8778 10.08 49.4058 10.08C47.9551 10.08 46.8138 10.6027 45.9818 11.648C45.1711 12.672 44.7658 14.1013 44.7658 15.936C44.7658 17.7493 45.1711 19.1573 45.9818 20.16C46.8138 21.1627 47.9658 21.664 49.4378 21.664ZM61.9618 0.447998H65.1618V24H61.9618V0.447998ZM74.0913 10.368V18.464C74.0913 19.5733 74.3259 20.3627 74.7953 20.832C75.2859 21.28 75.9579 21.504 76.8113 21.504C77.3659 21.504 77.9313 21.4187 78.5073 21.248V23.872C77.8033 24.1067 77.0033 24.224 76.1073 24.224C74.4433 24.224 73.1526 23.7547 72.2352 22.816C71.3179 21.8773 70.8593 20.512 70.8593 18.72V10.368H67.7233V7.872H70.8593V3.84L74.0913 2.72V7.872H78.5393V10.368H74.0913ZM90.1003 7.488C93.9616 7.488 95.8923 9.64267 95.8923 13.952V24H92.6603V14.144C92.6603 12.736 92.3829 11.712 91.8283 11.072C91.2949 10.432 90.4309 10.112 89.2363 10.112C87.8709 10.112 86.7723 10.5387 85.9403 11.392C85.1296 12.2453 84.7243 13.3867 84.7243 14.816V24H81.5243V0.447998H84.7243V10.368C85.2576 9.42933 85.9936 8.71467 86.9323 8.224C87.8709 7.73333 88.9269 7.488 90.1003 7.488ZM120.909 1.216L110.861 24H108.077L98.029 1.216H101.485L109.485 19.84L117.517 1.216H120.909ZM136.058 7.872V24H132.858V21.248C132.388 22.208 131.684 22.944 130.746 23.456C129.828 23.968 128.751 24.224 127.514 24.224C126.084 24.224 124.826 23.8827 123.738 23.2C122.671 22.5173 121.839 21.5573 121.242 20.32C120.644 19.0613 120.346 17.6 120.346 15.936C120.346 14.272 120.644 12.8 121.242 11.52C121.86 10.24 122.714 9.248 123.802 8.544C124.89 7.84 126.127 7.488 127.514 7.488C128.751 7.488 129.828 7.75467 130.746 8.288C131.663 8.8 132.367 9.536 132.858 10.496V7.872H136.058ZM128.282 21.664C129.732 21.664 130.852 21.1627 131.642 20.16C132.452 19.136 132.858 17.7067 132.858 15.872C132.858 14.016 132.452 12.5867 131.642 11.584C130.852 10.5813 129.722 10.08 128.25 10.08C126.799 10.08 125.658 10.6027 124.826 11.648C124.015 12.672 123.61 14.1013 123.61 15.936C123.61 17.7493 124.015 19.1573 124.826 20.16C125.658 21.1627 126.81 21.664 128.282 21.664ZM147.814 24.224C146.192 24.224 144.774 23.8827 143.558 23.2C142.363 22.5173 141.446 21.5573 140.806 20.32C140.166 19.0613 139.846 17.6 139.846 15.936C139.846 14.272 140.176 12.8 140.838 11.52C141.52 10.24 142.47 9.248 143.686 8.544C144.902 7.84 146.32 7.488 147.942 7.488C149.072 7.488 150.16 7.68 151.206 8.064C152.251 8.42667 153.094 8.928 153.734 9.568L152.742 11.904C151.227 10.7093 149.702 10.112 148.166 10.112C146.608 10.112 145.392 10.624 144.518 11.648C143.643 12.6507 143.206 14.0693 143.206 15.904C143.206 17.7387 143.643 19.1573 144.518 20.16C145.392 21.1413 146.608 21.632 148.166 21.632C149.744 21.632 151.27 21.0347 152.742 19.84L153.734 22.176C153.051 22.816 152.176 23.3173 151.11 23.68C150.064 24.0427 148.966 24.224 147.814 24.224ZM163.782 24.224C162.161 24.224 160.742 23.8827 159.526 23.2C158.332 22.5173 157.414 21.5573 156.774 20.32C156.134 19.0613 155.814 17.6 155.814 15.936C155.814 14.272 156.145 12.8 156.806 11.52C157.489 10.24 158.438 9.248 159.654 8.544C160.87 7.84 162.289 7.488 163.91 7.488C165.041 7.488 166.129 7.68 167.174 8.064C168.22 8.42667 169.062 8.928 169.702 9.568L168.71 11.904C167.196 10.7093 165.67 10.112 164.134 10.112C162.577 10.112 161.361 10.624 160.486 11.648C159.612 12.6507 159.174 14.0693 159.174 15.904C159.174 17.7387 159.612 19.1573 160.486 20.16C161.361 21.1413 162.577 21.632 164.134 21.632C165.713 21.632 167.238 21.0347 168.71 19.84L169.702 22.176C169.02 22.816 168.145 23.3173 167.078 23.68C166.033 24.0427 164.934 24.224 163.782 24.224ZM172.743 7.872H175.943V24H172.743V7.872ZM176.199 0.831999V4.224H172.455V0.831999H176.199ZM189.257 7.488C193.118 7.488 195.049 9.64267 195.049 13.952V24H191.817V14.144C191.817 12.736 191.539 11.712 190.985 11.072C190.451 10.432 189.587 10.112 188.393 10.112C187.027 10.112 185.929 10.5387 185.097 11.392C184.286 12.2453 183.881 13.3867 183.881 14.816V24H180.681V12.416C180.681 10.7307 180.595 9.216 180.424 7.872H183.433L183.721 10.656C184.233 9.632 184.969 8.85333 185.929 8.32C186.91 7.76533 188.019 7.488 189.257 7.488ZM213.409 16H201.889C201.996 19.776 203.713 21.664 207.041 21.664C208.897 21.664 210.593 21.056 212.129 19.84L213.121 22.144C212.396 22.784 211.468 23.296 210.337 23.68C209.228 24.0427 208.108 24.224 206.977 24.224C204.396 24.224 202.369 23.488 200.897 22.016C199.425 20.5227 198.689 18.4853 198.689 15.904C198.689 14.2613 199.009 12.8 199.649 11.52C200.311 10.24 201.228 9.248 202.401 8.544C203.575 7.84 204.908 7.488 206.401 7.488C208.577 7.488 210.284 8.192 211.521 9.6C212.78 11.008 213.409 12.96 213.409 15.456V16ZM206.465 9.888C205.249 9.888 204.257 10.2507 203.489 10.976C202.721 11.7013 202.231 12.736 202.017 14.08H210.561C210.433 12.7147 210.017 11.68 209.313 10.976C208.609 10.2507 207.66 9.888 206.465 9.888Z" fill="#B9C0C1"/>
</svg>
