coolicon.png<svg width="190" height="25" viewBox="0 0 190 25" fill="none" xmlns="http://www.w3.org/2000/svg">














<path d="M23.784 1.216L13.736 24H10.952L0.904 1.216H4.36L12.36 19.84L20.392 1.216H23.784ZM39.1945 18.368H27.6745L25.2425 24H21.8825L32.0265 1.216H34.8105L44.9865 24H41.6265L39.1945 18.368ZM38.0745 15.744L33.4345 4.896L28.7945 15.744H38.0745ZM57.2033 24.256C55.0059 24.256 53.0859 23.7867 51.4433 22.848C49.8219 21.888 48.5739 20.5333 47.6993 18.784C46.8246 17.0347 46.3873 14.9653 46.3873 12.576C46.3873 10.208 46.8246 8.14933 47.6993 6.4C48.5739 4.65067 49.8219 3.30667 51.4433 2.368C53.0859 1.42933 55.0059 0.959999 57.2033 0.959999C58.7606 0.959999 60.2006 1.20533 61.5233 1.696C62.8673 2.16533 63.9979 2.85867 64.9153 3.776L63.7633 6.208C62.6966 5.33333 61.6406 4.704 60.5953 4.32C59.5713 3.91467 58.4513 3.712 57.2353 3.712C54.8673 3.712 53.0326 4.48 51.7313 6.016C50.4513 7.552 49.8113 9.73867 49.8113 12.576C49.8113 15.4347 50.4513 17.6427 51.7313 19.2C53.0326 20.736 54.8673 21.504 57.2353 21.504C58.4513 21.504 59.5713 21.312 60.5953 20.928C61.6406 20.5227 62.6966 19.8827 63.7633 19.008L64.9153 21.44C63.9979 22.3573 62.8673 23.0613 61.5233 23.552C60.2006 24.0213 58.7606 24.256 57.2033 24.256ZM78.7033 24.256C76.5059 24.256 74.5859 23.7867 72.9433 22.848C71.3219 21.888 70.0739 20.5333 69.1993 18.784C68.3246 17.0347 67.8873 14.9653 67.8873 12.576C67.8873 10.208 68.3246 8.14933 69.1993 6.4C70.0739 4.65067 71.3219 3.30667 72.9433 2.368C74.5859 1.42933 76.5059 0.959999 78.7033 0.959999C80.2606 0.959999 81.7006 1.20533 83.0233 1.696C84.3673 2.16533 85.4979 2.85867 86.4153 3.776L85.2633 6.208C84.1966 5.33333 83.1406 4.704 82.0953 4.32C81.0713 3.91467 79.9513 3.712 78.7353 3.712C76.3673 3.712 74.5326 4.48 73.2313 6.016C71.9513 7.552 71.3113 9.73867 71.3113 12.576C71.3113 15.4347 71.9513 17.6427 73.2313 19.2C74.5326 20.736 76.3673 21.504 78.7353 21.504C79.9513 21.504 81.0713 21.312 82.0953 20.928C83.1406 20.5227 84.1966 19.8827 85.2633 19.008L86.4153 21.44C85.4979 22.3573 84.3673 23.0613 83.0233 23.552C81.7006 24.0213 80.2606 24.256 78.7033 24.256ZM90.5623 1.216H93.8583V24H90.5623V1.216ZM117.844 1.216V24H115.316L102.26 6.784V24H99.156V1.216H101.652L114.74 18.464V1.216H117.844ZM123.156 1.216H137.94V3.904H126.42V11.072H137.3V13.76H126.42V21.312H137.94V24H123.156V1.216ZM149.206 24.256C147.435 24.256 145.814 24.0213 144.342 23.552C142.891 23.0827 141.632 22.3787 140.566 21.44L141.75 19.008C142.859 19.904 144.011 20.5547 145.206 20.96C146.4 21.3653 147.744 21.568 149.238 21.568C150.944 21.568 152.267 21.248 153.206 20.608C154.144 19.968 154.614 19.0613 154.614 17.888C154.614 16.9067 154.176 16.1707 153.302 15.68C152.427 15.168 151.04 14.6987 149.142 14.272C147.328 13.888 145.846 13.4507 144.694 12.96C143.542 12.448 142.635 11.776 141.974 10.944C141.312 10.0907 140.982 9.00267 140.982 7.68C140.982 6.35733 141.334 5.19467 142.038 4.192C142.742 3.168 143.734 2.37867 145.014 1.824C146.315 1.248 147.808 0.959999 149.494 0.959999C151.094 0.959999 152.587 1.20533 153.974 1.696C155.382 2.18667 156.555 2.88 157.494 3.776L156.31 6.208C155.264 5.33333 154.187 4.69333 153.078 4.288C151.968 3.86133 150.784 3.648 149.526 3.648C147.883 3.648 146.592 4 145.654 4.704C144.715 5.38667 144.246 6.32533 144.246 7.52C144.246 8.544 144.651 9.32267 145.462 9.856C146.294 10.3893 147.616 10.8693 149.43 11.296C151.328 11.7227 152.864 12.1707 154.038 12.64C155.211 13.1093 156.15 13.7493 156.854 14.56C157.558 15.3707 157.91 16.416 157.91 17.696C157.91 19.0187 157.558 20.1707 156.854 21.152C156.15 22.1333 155.136 22.9013 153.814 23.456C152.512 23.9893 150.976 24.256 149.206 24.256ZM162 1.216H165.296V24H162V1.216ZM189.282 1.216V24H186.753L173.698 6.784V24H170.594V1.216H173.09L186.178 18.464V1.216H189.282Z" fill="#B9C0C1"/>
</svg>
